<svg xmlns="http://www.w3.org/2000/svg" viewBox="0 0 32 32" shape-rendering="crispEdges"><rect x="9" y="7" width="2" height="1" fill="#F2789F"/><rect x="13" y="7" width="2" height="1" fill="#F2789F"/><rect x="17" y="7" width="2" height="1" fill="#F2789F"/><rect x="21" y="7" width="2" height="1" fill="#F2789F"/><rect x="8" y="8" width="1" height="1" fill="#14141C"/><rect x="9" y="8" width="6" height="1" fill="#F2789F"/><rect x="15" y="8" width="2" height="1" fill="#14141C"/><rect x="17" y="8" width="6" height="1" fill="#F2789F"/><rect x="23" y="8" width="1" height="1" fill="#14141C"/><rect x="9" y="9" width="6" height="1" fill="#F2789F"/><rect x="17" y="9" width="6" height="1" fill="#F2789F"/><rect x="10" y="10" width="4" height="1" fill="#F2789F"/><rect x="18" y="10" width="4" height="1" fill="#F2789F"/><rect x="11" y="11" width="2" height="1" fill="#F2789F"/><rect x="19" y="11" width="2" height="1" fill="#F2789F"/></svg>
